<?xml version="1.0" encoding="UTF-8"?><svg id="b" xmlns="http://www.w3.org/2000/svg" viewBox="0 0 279.39 35.47"><defs><style>.d{fill:#275dab;}.d,.e{stroke-width:0px;}.e{fill:#fff;}</style></defs><g id="c"><path class="e" d="m7.95.41v.66c-.65.06-1.1.15-1.34.28s-.36.4-.36.84c0,.11.01.25.04.4.03.15.07.31.12.48l3.31,9.45h.06l3.09-7.91s-.11-.45-.38-1.21c-.27-.76-.46-1.23-.56-1.41-.2-.32-.42-.54-.67-.67-.24-.13-.68-.22-1.31-.26V.41h8.44v.66c-.77.06-1.29.15-1.55.25-.26.11-.39.34-.39.71,0,.09.03.26.09.51.06.25.16.6.3,1.04l3.1,8.7h-.11l2.95-8.89c.05-.16.1-.33.13-.51.03-.18.05-.38.05-.6,0-.5-.19-.84-.57-1-.23-.11-.66-.18-1.31-.21V.41h4.94v.66c-.41.06-.73.17-.96.32-.4.27-.7.74-.92,1.41l-5.41,16.31h-.71l-4.54-12.67h-.18l-4.94,12.67h-.75L1.89,2.8c-.25-.7-.49-1.15-.74-1.34s-.63-.32-1.15-.39V.41h7.95Z"/><path class="e" d="m27.36,7.77c1.16-1.26,2.61-1.89,4.36-1.89s3.25.64,4.38,1.92,1.71,2.84,1.71,4.67-.56,3.35-1.69,4.65c-1.12,1.3-2.59,1.94-4.4,1.94s-3.21-.63-4.36-1.89c-1.15-1.26-1.73-2.83-1.73-4.7s.58-3.45,1.73-4.71Zm2.52,8.67c.31,1.17.92,1.75,1.83,1.75s1.44-.45,1.71-1.34.41-2.36.41-4.38-.14-3.47-.43-4.37c-.29-.9-.85-1.35-1.68-1.35-.91,0-1.52.58-1.83,1.75-.2.78-.3,2.1-.3,3.97s.1,3.21.29,3.97Z"/><path class="e" d="m39.02,18.01c.52-.06.88-.18,1.08-.37s.31-.54.33-1.07l.03-.79v-7.34c0-.57-.1-.95-.29-1.16-.19-.2-.58-.34-1.15-.41v-.65h5.12v2.12c.57-.75,1.14-1.34,1.7-1.78.56-.44,1.22-.66,1.96-.66.55,0,1.05.18,1.5.53.44.36.67.88.67,1.56,0,.53-.16.96-.47,1.31s-.72.51-1.22.51c-.57,0-1.07-.27-1.49-.8s-.71-.8-.88-.8c-.36,0-.73.22-1.09.67-.37.44-.55,1.08-.55,1.91v5.11c0,.89.13,1.45.39,1.67.26.22.78.37,1.55.44v.65h-7.19v-.65Z"/><path class="e" d="m50.95,18.01c.47-.11.81-.27,1.01-.45.2-.19.3-.58.3-1.18V2.62c0-.58-.09-.95-.28-1.13-.18-.18-.53-.32-1.03-.44V.41h5.12v15.97c0,.6.1.99.29,1.17s.54.34,1.03.46v.65h-6.43v-.65Z"/><path class="e" d="m60.23,7.76c1.02-1.23,2.23-1.85,3.66-1.85.71,0,1.34.18,1.9.53.34.21.77.59,1.29,1.13V2.62c0-.68-.13-1.11-.4-1.27-.26-.16-.81-.26-1.63-.3V.41h5.81v15.54c0,.56.11.94.32,1.16s.62.35,1.24.4v.62c-1.51.15-2.49.26-2.93.34-.44.08-1.21.27-2.32.57v-1.78c-.51.53-.98.92-1.4,1.17-.67.4-1.39.61-2.16.61-1.32,0-2.47-.56-3.44-1.67s-1.46-2.63-1.46-4.55c0-2.14.51-3.82,1.52-5.06Zm6.15,8.97c.46-.52.69-.88.69-1.09v-6.57c0-.22-.2-.54-.6-.98-.4-.43-.92-.65-1.57-.65-.96,0-1.61.66-1.96,1.99-.19.71-.28,1.72-.28,3.02,0,1.39.09,2.43.26,3.14.33,1.27.95,1.91,1.88,1.91.58,0,1.1-.26,1.57-.78Z"/><path class="e" d="m79.47,6.22v.65c-.31.03-.56.09-.75.19s-.29.31-.29.62c0,.11.01.21.04.31.03.1.08.25.16.45l2.09,5.29h.09l1.72-4.44c0-.06-.07-.33-.21-.8-.14-.47-.26-.8-.36-.99-.14-.25-.27-.4-.4-.46-.13-.06-.39-.11-.78-.16v-.65h6.31v.65c-.39.02-.7.07-.93.15-.23.08-.35.23-.35.46,0,.13.02.29.05.46.03.17.09.41.18.7l1.61,4.84h-.15l2-5.15c.03-.09.05-.17.07-.25.02-.08.03-.15.03-.23,0-.38-.11-.63-.34-.75-.22-.12-.55-.19-.98-.23v-.65h3.67v.65c-.33.06-.58.18-.77.34-.19.16-.38.5-.57,1.02l-4.19,10.81h-.62l-2.78-8.34h-.11l-3.23,8.34h-.66l-3.99-10.1c-.33-.84-.58-1.38-.74-1.61-.16-.23-.42-.39-.79-.46v-.65h6Z"/><path class="e" d="m92.97,18.01c.47-.08.8-.2.98-.36.26-.24.4-.66.4-1.28v-7.94c0-.55-.09-.92-.28-1.12s-.55-.35-1.09-.45v-.65h5.18v10.26c0,.59.09.97.26,1.13s.51.3.99.4v.65h-6.43v-.65Zm1.8-17.4c.41-.41.9-.61,1.48-.61s1.06.2,1.47.61.61.9.61,1.48-.2,1.07-.61,1.48-.9.61-1.47.61-1.07-.2-1.48-.61c-.41-.41-.61-.9-.61-1.48s.2-1.07.61-1.48Z"/><path class="e" d="m102.25,7.76c1.02-1.23,2.23-1.85,3.66-1.85.71,0,1.34.18,1.9.53.34.21.77.59,1.29,1.13V2.62c0-.68-.13-1.11-.4-1.27-.26-.16-.81-.26-1.63-.3V.41h5.81v15.54c0,.56.11.94.32,1.16s.62.35,1.24.4v.62c-1.51.15-2.49.26-2.93.34-.44.08-1.21.27-2.32.57v-1.78c-.51.53-.98.92-1.4,1.17-.67.4-1.39.61-2.16.61-1.32,0-2.47-.56-3.44-1.67s-1.46-2.63-1.46-4.55c0-2.14.51-3.82,1.52-5.06Zm6.15,8.97c.46-.52.69-.88.69-1.09v-6.57c0-.22-.2-.54-.6-.98-.4-.43-.92-.65-1.57-.65-.96,0-1.61.66-1.96,1.99-.19.71-.28,1.72-.28,3.02,0,1.39.09,2.43.26,3.14.33,1.27.95,1.91,1.88,1.91.58,0,1.1-.26,1.57-.78Z"/><path class="e" d="m117.3,7.63c1.1-1.15,2.44-1.72,3.99-1.72.89,0,1.73.23,2.51.7s1.39,1.11,1.81,1.94c.32.62.54,1.43.66,2.43.06.47.09.82.09,1.07h-6.9c.06,1.08.24,2.02.53,2.81.53,1.49,1.46,2.23,2.79,2.23.63,0,1.23-.2,1.8-.59.34-.24.77-.64,1.28-1.2l.62.38c-.84,1.37-1.8,2.32-2.9,2.86-.71.34-1.53.51-2.46.51-1.33,0-2.57-.52-3.74-1.57s-1.74-2.72-1.74-5.01c0-2.07.55-3.68,1.66-4.83Zm5.74,3.41c-.02-1.59-.14-2.7-.37-3.34s-.69-.95-1.38-.95-1.19.36-1.45,1.09-.41,1.79-.44,3.19h3.64Z"/><path class="e" d="m134.22,17.97c1-.03,1.65-.22,1.94-.57.29-.36.44-.88.44-1.58V3.03c-.83-.92-1.34-1.47-1.53-1.63-.19-.16-.46-.27-.79-.31V.41h5.72l9.28,11.28h.13V3.76c0-.91-.17-1.57-.5-1.96-.33-.39-1-.63-1.99-.71V.41h5.8v.69c-.84.14-1.41.33-1.69.56s-.43.76-.43,1.59v15.91h-.75l-11.88-14.44h-.18v10.59c0,.83.11,1.42.34,1.76.36.56,1.1.86,2.21.9v.69h-6.12v-.69Z"/><path class="e" d="m155.54,7.63c1.1-1.15,2.44-1.72,3.99-1.72.89,0,1.73.23,2.51.7s1.39,1.11,1.81,1.94c.32.62.54,1.43.66,2.43.06.47.09.82.09,1.07h-6.9c.06,1.08.24,2.02.53,2.81.53,1.49,1.46,2.23,2.79,2.23.63,0,1.23-.2,1.8-.59.34-.24.77-.64,1.28-1.2l.62.38c-.84,1.37-1.8,2.32-2.9,2.86-.71.34-1.53.51-2.46.51-1.33,0-2.57-.52-3.74-1.57s-1.74-2.72-1.74-5.01c0-2.07.55-3.68,1.66-4.83Zm5.74,3.41c-.02-1.59-.14-2.7-.37-3.34s-.69-.95-1.38-.95-1.19.36-1.45,1.09-.41,1.79-.44,3.19h3.64Z"/><path class="e" d="m171.7,6.22v.65c-.31.03-.56.09-.75.19s-.29.31-.29.62c0,.11.01.21.04.31.03.1.08.25.16.45l2.09,5.29h.09l1.72-4.44c0-.06-.07-.33-.21-.8-.14-.47-.26-.8-.36-.99-.14-.25-.27-.4-.4-.46-.13-.06-.39-.11-.78-.16v-.65h6.31v.65c-.39.02-.7.07-.93.15-.23.08-.35.23-.35.46,0,.13.02.29.05.46.03.17.09.41.18.7l1.61,4.84h-.15l2-5.15c.03-.09.05-.17.07-.25.02-.08.03-.15.03-.23,0-.38-.11-.63-.34-.75-.22-.12-.55-.19-.98-.23v-.65h3.67v.65c-.33.06-.58.18-.77.34-.19.16-.38.5-.57,1.02l-4.19,10.81h-.62l-2.78-8.34h-.11l-3.23,8.34h-.66l-3.99-10.1c-.33-.84-.58-1.38-.74-1.61-.16-.23-.42-.39-.79-.46v-.65h6Z"/><path class="e" d="m185.45,14.57h.75c.26,1.29.76,2.2,1.48,2.74.72.53,1.46.8,2.21.8.69,0,1.2-.16,1.53-.47s.49-.72.49-1.23c0-.48-.18-.9-.53-1.24-.19-.18-.51-.38-.94-.59l-2-.98c-1.05-.52-1.81-1.08-2.27-1.69-.47-.61-.7-1.32-.7-2.15,0-1.05.36-1.95,1.09-2.71.73-.76,1.75-1.14,3.06-1.14.57,0,1.18.09,1.82.28s1.04.28,1.2.28c.22,0,.38-.05.47-.14.09-.09.17-.22.23-.39h.59v3.9h-.69c-.25-.91-.67-1.65-1.25-2.2s-1.26-.83-2.03-.83c-.6,0-1.04.17-1.34.5s-.44.69-.44,1.08c0,.32.13.63.4.95.25.33.74.66,1.45,1l1.48.71c.91.44,1.58.87,2,1.28.7.7,1.05,1.57,1.05,2.6s-.36,1.94-1.09,2.8c-.72.87-1.81,1.3-3.26,1.3-.36,0-.72-.04-1.09-.11-.36-.08-.81-.2-1.35-.39l-.46-.16c-.17-.06-.27-.1-.31-.11-.04,0-.09-.01-.15-.01-.15,0-.28.06-.39.18-.11.12-.23.32-.38.6h-.65v-4.47Z"/><path class="d" d="m202.39,17.97c.68-.04,1.16-.14,1.46-.29.53-.27.79-.77.79-1.49V2.87c0-.69-.25-1.18-.75-1.45-.29-.16-.79-.27-1.5-.33V.41h8.25c3.33,0,5.87.89,7.62,2.66,1.59,1.62,2.39,3.79,2.39,6.51,0,2.44-.8,4.51-2.4,6.21-1.8,1.91-4.25,2.86-7.33,2.86h-8.53v-.69Zm6.93-.59c.18.25.56.37,1.15.37,1.6,0,2.91-.56,3.94-1.69s1.54-3.3,1.54-6.51c0-1.91-.28-3.55-.83-4.92-.9-2.21-2.41-3.31-4.54-3.31-.7,0-1.16.15-1.37.45-.14.19-.21.57-.21,1.12v13.29c.03.55.13.95.31,1.2Z"/><path class="d" d="m221.96,18.01c.47-.08.8-.2.98-.36.26-.24.4-.66.4-1.28v-7.94c0-.55-.09-.92-.28-1.12s-.55-.35-1.09-.45v-.65h5.18v10.26c0,.59.09.97.26,1.13s.5.3.99.4v.65h-6.43v-.65Zm1.8-17.4c.41-.41.9-.61,1.48-.61s1.06.2,1.47.61.61.9.61,1.48-.2,1.07-.61,1.48-.9.61-1.47.61-1.07-.2-1.48-.61c-.41-.41-.61-.9-.61-1.48s.21-1.07.61-1.48Z"/><path class="d" d="m230.13,20.59c.32-.41.88-.67,1.67-.8v-.18c-.53-.2-.91-.41-1.15-.62-.42-.38-.63-.88-.63-1.52,0-.76.33-1.4,1-1.94.66-.54,1.31-.91,1.94-1.12v-.18c-.91-.37-1.65-.9-2.21-1.58s-.84-1.52-.84-2.49c0-1.23.49-2.25,1.48-3.05s2.32-1.2,4-1.2c.63,0,1.21.06,1.74.18s.94.25,1.23.38h3.56v1.44h-2.19c.35.34.62.74.81,1.2.19.46.28.95.28,1.49,0,1.69-.8,2.84-2.41,3.47-.84.33-1.89.5-3.15.5-.27,0-.45,0-.53-.01-.08,0-.21-.01-.38-.01-.26.04-.54.18-.83.42-.3.25-.45.54-.45.88,0,.27.07.48.22.63s.36.24.62.28c.13.02.41.03.84.05.43.01.76.02,1,.02l1.75.03c.99.02,1.83.16,2.5.44,1.29.53,1.94,1.47,1.94,2.83,0,1.76-.97,2.97-2.9,3.63-1.02.34-2.3.51-3.85.51-1.27,0-2.36-.12-3.27-.37-1.51-.41-2.27-1.12-2.27-2.11,0-.39.16-.78.48-1.19Zm2.78,2.32c.59.32,1.45.48,2.58.48,1,0,1.83-.08,2.48-.24,1.22-.3,1.83-.85,1.83-1.65,0-.47-.17-.82-.52-1.05-.35-.23-.98-.35-1.89-.35h-4.43c-.28.23-.48.42-.61.58-.22.29-.33.6-.33.93,0,.56.3.99.89,1.31Zm.94-10.35c.26.79.77,1.19,1.52,1.19.68,0,1.14-.3,1.4-.89.25-.59.38-1.46.38-2.6,0-1.21-.13-2.1-.4-2.65-.27-.55-.73-.83-1.38-.83-.71,0-1.19.3-1.42.89-.24.59-.36,1.46-.36,2.59,0,1.04.09,1.81.26,2.31Z"/><path class="d" d="m242.96,18.01c.47-.08.8-.2.98-.36.26-.24.4-.66.4-1.28v-7.94c0-.55-.09-.92-.28-1.12s-.55-.35-1.09-.45v-.65h5.18v10.26c0,.59.09.97.26,1.13s.51.3.99.4v.65h-6.43v-.65Zm1.8-17.4c.41-.41.9-.61,1.48-.61s1.06.2,1.47.61.61.9.61,1.48-.2,1.07-.61,1.48-.9.61-1.47.61-1.07-.2-1.48-.61c-.41-.41-.61-.9-.61-1.48s.2-1.07.61-1.48Z"/><path class="d" d="m250.46,7.41v-.75c.24-.22.53-.48.88-.78.47-.43.91-.87,1.32-1.33.82-.9,1.56-1.86,2.23-2.89h.69v4.56h2.57v1.19h-2.57v8.12c0,.38.06.69.17.95.18.4.47.59.87.59.35,0,.65-.12.88-.38.24-.25.47-.6.71-1.03l.65.32c-.32.74-.69,1.34-1.13,1.81-.77.82-1.72,1.23-2.83,1.23-.63,0-1.19-.12-1.66-.36-.91-.46-1.37-1.29-1.38-2.49V7.41h-1.4Z"/><path class="d" d="m261.46,13.24c1.17-.71,3-1.43,5.5-2.15v-1.96c0-.8-.17-1.39-.51-1.77-.34-.38-.94-.57-1.8-.57-.48,0-.88.09-1.19.27-.31.18-.47.41-.47.68,0,.11.02.19.05.26s.09.15.16.22l.16.18c.12.15.22.31.3.49.08.18.11.37.11.57,0,.51-.17.9-.51,1.18-.34.28-.73.42-1.18.42-.52,0-.96-.15-1.33-.46-.37-.31-.55-.75-.55-1.33,0-1.03.49-1.85,1.46-2.46.98-.6,2.18-.91,3.6-.91,1.53,0,2.81.29,3.84.88,1.02.6,1.53,1.7,1.53,3.3v6.54c0,.19.05.36.15.49.1.14.21.2.34.2.11,0,.2-.02.28-.06.08-.04.21-.15.39-.32l.41.57c-.53.62-1.11,1.05-1.75,1.29-.4.16-.83.24-1.28.24-.8,0-1.38-.23-1.75-.7-.21-.26-.37-.66-.46-1.18-.75.75-1.59,1.28-2.53,1.58-.57.19-1.13.29-1.69.29-.74,0-1.43-.24-2.07-.71s-.96-1.2-.96-2.2c0-1.21.58-2.18,1.75-2.89Zm4.71,3.48c.21-.16.46-.41.75-.74v-3.95c-.72.18-1.35.45-1.9.83-.92.64-1.38,1.46-1.38,2.46,0,.59.13,1.04.4,1.34.27.3.57.46.9.46.44,0,.85-.13,1.23-.4Z"/><path class="d" d="m272.95,18.01c.47-.11.81-.27,1.01-.45.2-.19.3-.58.3-1.18V2.62c0-.58-.09-.95-.28-1.13-.18-.18-.53-.32-1.03-.44V.41h5.12v15.97c0,.6.1.99.29,1.17s.54.34,1.03.46v.65h-6.43v-.65Z"/><path class="e" d="m1.45,30.26h-.1c-.33,0-.62.02-.88.06l-.07-.35c.3.05.45.06.95.06h6.65c.25-.3.33-.39.58-.69.29.26.58.51.85.75.06.05.08.08.08.11s-.05.06-.09.06h-4.95v2.62c0,.95,0,1.52.05,2.35-.01.07-.03.1-.09.12-.07.03-.36.07-.49.07-.08,0-.12-.03-.12-.1v-.02c.03-.92.03-1.18.03-1.62q-1.32.48-2.8.97c-.06.34-.08.41-.17.41-.1,0-.18-.19-.41-.99.36-.02.47-.03.98-.1v-3.71Zm1.04-.8v.03c0,.08-.11.11-.43.11-.2,0-.25-.02-.25-.1v-.02c.03-.72.04-1.04.04-1.95,0-.67-.01-.83-.04-1.26.32.18.42.24.73.44h4.65c.15-.19.2-.25.37-.44.28.2.36.27.6.49.05.05.07.08.07.11q0,.06-.32.28c0,1.32,0,1.74.02,2.23h0c-.01.1-.02.12-.08.14-.07.03-.23.04-.45.04-.13,0-.16-.02-.16-.1v-.26H2.49v.26Zm-.42,1.76h1.79v-.96h-1.79v.96Zm0,1.22h1.79v-.99h-1.79v.99Zm0,1.42c.86-.15,1.17-.21,1.79-.36v-.83h-1.79v1.19Zm5.17-6.92H2.49v.88h4.75v-.88Zm-4.75,1.11v.92h4.75v-.92H2.49Zm5.25,3.11c.18-.18.24-.23.43-.4.26.21.33.28.6.51.06.06.09.1.09.13,0,.06-.04.09-.46.24-.52.96-.77,1.34-1.18,1.81.73.51,1.28.72,2.33.92v.13c-.21.05-.31.1-.44.21-.15.14-.19.22-.24.42-.93-.41-1.41-.72-2.01-1.3-.61.58-1.12.9-2.07,1.34l-.08-.11c.73-.44,1.17-.81,1.84-1.57-.58-.68-.86-1.17-1.18-2.1h-.09c-.16,0-.32.02-.5.05l-.07-.33c.19.04.31.05.57.05h2.46Zm-2.19.23c.27.59.36.74.61,1.06.21.26.4.47.67.7.45-.61.63-.97.91-1.76h-2.19Z"/><path class="e" d="m12.61,31.37c-.01-.54-.01-.68-.04-1.06.8.07.98.11.98.22,0,.07-.08.11-.34.18v.66h.93c.21-.25.27-.33.48-.57.32.26.42.35.73.65.03.04.04.06.04.08,0,.04-.04.07-.09.07h-2.09v.42c.53.13.97.29,1.24.44.16.1.23.21.23.4,0,.16-.07.42-.14.49,0,.02-.04.03-.07.03-.07,0-.09-.02-.19-.18-.31-.49-.56-.73-1.07-1,0,.63,0,1.4.03,2.95,0,.09-.02.12-.09.14s-.27.04-.4.04c-.12,0-.16-.03-.16-.12q.02-.43.03-1.5.01-.73.02-1.12c-.61.84-1.12,1.33-2.03,1.96l-.09-.11c.95-.94,1.52-1.77,1.96-2.84h-.75c-.27,0-.51,0-1.02.05l-.06-.33q.18.02,1.07.05h.89Zm1.63-1.5c.22-.25.29-.32.49-.57.32.28.42.36.72.65,0,.03.02.06.02.07,0,.04-.04.08-.08.08h-3.89s-.3.02-.9.05l-.05-.34c.37.04.75.06.96.06h1.59c.28-.57.49-1.22.62-1.92.74.18.95.26.95.35,0,.06-.09.1-.35.14-.55.87-.75,1.14-1.01,1.43h.93Zm-.18-2.26c.21-.26.28-.34.5-.58.32.27.41.35.73.65.03.03.04.06.04.08,0,.04-.04.08-.09.08h-3.43c-.37,0-.57.01-.96.04l-.07-.34c.3.04.77.07,1.03.07h.8v-.12c0-.46-.02-.84-.07-1.14.86.08,1.09.12,1.09.21,0,.07-.07.1-.39.22v.83h.82Zm-2.53.36c.68.65.91.94.91,1.15,0,.09-.05.26-.1.39-.07.15-.22.29-.32.29-.08,0-.11-.09-.15-.39-.06-.42-.16-.76-.42-1.37l.08-.07Zm4.83,1.84c0,1.27-.18,2.27-.57,3.14-.43.94-.97,1.54-1.97,2.21l-.11-.15c.89-.77,1.3-1.33,1.6-2.25.31-.92.4-1.74.4-3.56,0-.86,0-1.45-.05-2.13.37.2.48.26.81.47.49-.16,1.03-.4,1.53-.68.26-.14.36-.21.59-.4.73.41.91.54.91.66,0,.04-.08.07-.17.07-.01,0-.23-.01-.4-.02-1.12.34-1.53.43-2.57.61v1.8h2.11q.3-.34.58-.65c.33.3.44.41.77.77.02.03.03.04.03.06,0,.03-.03.05-.07.05h-1.37v1.56c0,.35,0,1.62.04,3.81,0,.07-.03.09-.11.11-.09.02-.35.04-.47.04-.1,0-.14-.02-.16-.1l.04-3.86v-1.56h-1.39Z"/><path class="e" d="m21.97,32.73c.15,0,.41-.02.85-.07,1.47-.15,2.34-.22,3.57-.28.94-.04,1-.04,1.35-.13.12-.03.21-.04.27-.04.31,0,.93.51.93.76,0,.13-.11.22-.28.22-.08,0-.11,0-.5-.08-.68-.15-1.48-.22-2.33-.22-1.14,0-2.89.28-3.6.58-.16.07-.2.08-.31.08-.24,0-.53-.21-.79-.57-.17-.24-.28-.51-.28-.68t.06-.19c.34.5.55.62,1.06.62Zm.46-4.33c.46.45.69.56,1.22.56.86,0,2.22-.27,2.75-.56.08-.04.12-.05.16-.05.12,0,.35.12.55.27.14.11.19.19.19.3,0,.16-.13.21-.64.28-1.32.19-2.15.27-2.72.27-.75,0-1.09-.21-1.64-.98l.13-.09Z"/><path class="e" d="m32.58,30.39c.33,0,.92-.08,1.43-.19.26-.06.31-.07.42-.13.04-.03.09-.05.13-.07.07-.03.09-.04.15-.04.1,0,.32.15.5.34.16.17.2.24.2.34,0,.06-.01.09-.07.16-.08.1-.12.24-.23.69-.15.57-.36,1.45-.43,1.76q.09-.01.41-.03c.73-.04.81-.05,1.05-.14.1-.04.13-.05.17-.05.08,0,.27.08.42.17.24.14.39.32.39.46,0,.11-.1.2-.23.2q-.08,0-.54-.11c-.25-.06-.65-.09-1.2-.09-.96,0-1.7.09-2.6.31-.4.09-.64.17-.87.28-.13.07-.17.08-.26.08-.18,0-.39-.12-.57-.33-.17-.2-.33-.51-.33-.66,0-.04,0-.09.04-.17.21.31.46.47.76.47.1,0,.36-.03.68-.07.64-.1,1.14-.17,1.52-.21q.41-.05.61-.08c.16-.8.39-2.41.39-2.74,0-.03,0-.04-.03-.04-.12,0-.85.16-1.2.26-.29.09-.38.12-.57.21-.07.03-.17.05-.24.05-.18,0-.35-.14-.5-.4-.12-.21-.19-.4-.19-.54,0-.07.01-.11.06-.2.16.34.41.51.73.51Z"/><path class="e" d="m39.08,30.35c.25.19.44.24.97.24q.11,0,1.23-.03c.39-.01,3.57-.06,3.9-.06.9,0,1.12.02,1.3.09.1.05.14.11.14.2,0,.12-.09.23-.23.27-.27.09-.51.1-2.4.12-.93,0-3.22.07-3.57.09-.47.03-.56.04-.72.13-.04.01-.11.03-.15.03-.15,0-.31-.11-.48-.33-.21-.26-.38-.68-.38-.92,0-.14.01-.16.08-.23.12.23.17.3.31.4Z"/><path class="e" d="m47.22,34.32c.96-.6,1.95-1.41,2.69-2.19.6-.63,1.32-1.57,1.91-2.49.32-.49.49-.82.68-1.29-.48.03-1.01.14-2.11.44-.48.13-.52.14-.84.27-.05.02-.11.03-.17.03-.22,0-.43-.18-.65-.57-.14-.23-.21-.44-.21-.6,0-.06.02-.11.07-.2.29.52.5.67.94.67.33,0,1.34-.13,2.1-.28.58-.11.76-.17.94-.28.11-.07.16-.09.23-.09.21,0,.78.51.78.7,0,.07-.04.13-.13.19q-.21.14-.57.68-.48.72-1.26,1.74c1.41.74,2.2,1.25,2.59,1.69.27.29.38.58.38.99,0,.32-.1.52-.27.52-.07,0-.15-.05-.23-.16q-.04-.05-.24-.4c-.5-.84-1.36-1.73-2.38-2.45-.81.98-1.46,1.59-2.42,2.25-.63.44-1.06.68-1.75.98l-.08-.15Z"/><path class="e" d="m56.55,28.09c.48.38.71.47,1.25.47.32,0,.61-.04,1.07-.13.22-.43.35-.8.35-1.02,0-.27-.19-.43-.71-.56.17-.09.26-.11.45-.11.23,0,.52.06.78.17.25.1.36.21.36.33,0,.07-.04.14-.16.29-.09.12-.21.3-.29.41q-.18.29-.25.39c.84-.24,1.11-.36,1.44-.64.06-.05.12-.07.19-.07.39,0,.67.14.67.33,0,.12-.13.22-.43.32-.89.29-1.37.41-2.18.57-.18.25-.3.43-.53.78-.27.42-.35.53-.54.8.56-.29.91-.4,1.29-.4.59,0,1.03.4,1.12,1q.17-.08.98-.49c.99-.5,1.23-.66,1.23-.84,0-.17-.17-.35-.46-.47.11-.05.16-.06.23-.06.44,0,1.13.61,1.13,1.01,0,.18-.08.25-.36.31-.6.14-1.9.64-2.68,1.03.01.32.01.38.01.81s-.03.76-.08.86c-.05.11-.16.19-.28.19-.19,0-.32-.13-.32-.3,0-.05,0-.1,0-.17.04-.29.06-.63.07-1.07-.62.34-.91.54-1.17.79-.33.32-.49.63-.49.93,0,.54.55.8,1.67.8.7,0,1.4-.1,2.01-.28.07-.02.14-.03.19-.03.31,0,.7.28.7.5,0,.13-.11.23-.31.27-.41.08-1.17.14-1.79.14-.94,0-1.63-.1-2.03-.29-.51-.24-.74-.57-.74-1.06s.23-.9.72-1.37c.26-.25.58-.48,1.24-.89-.01-.42-.04-.58-.14-.79-.09-.18-.29-.3-.51-.3-.66,0-1.45.53-2.17,1.45-.19.26-.27.32-.37.32-.16,0-.27-.21-.27-.53,0-.21.01-.22.29-.45.71-.56,1.15-1.08,1.86-2.15-.33.05-.46.06-.67.06-.68,0-1.03-.18-1.49-.77l.11-.09Z"/><path class="e" d="m69.47,34.39c1.8-.63,2.78-1.7,2.78-3.02,0-.98-.62-1.65-1.52-1.65s-2.03.52-3.09,1.41c0,.81.06,1.91.11,2.3.03.25.03.29.03.39,0,.33-.08.68-.2.93-.06.13-.15.2-.25.2-.08,0-.17-.05-.21-.13t-.1-.28c-.09-.27-.14-.35-.35-.6-.27-.32-.45-.5-.76-.77-.05.09-.08.15-.1.2-.14.27-.21.36-.29.36-.14,0-.3-.38-.3-.71,0-.13.04-.21.19-.37.15-.15.28-.3.43-.49.29-.37,1.23-1.7,1.48-2.11.02-.36.03-.6.04-.73q-.44.25-.98.63c-.19.14-.31.19-.41.19-.17,0-.37-.13-.53-.34-.15-.19-.25-.42-.25-.55,0-.04.02-.09.05-.17.17.32.38.48.61.48.21,0,.94-.29,1.55-.63.02-.19.05-.78.05-1,0-.63-.07-.77-.59-1.15.07-.04.11-.05.15-.05.2,0,.55.15.82.35.25.18.37.33.37.47q0,.08-.12.4c-.1.26-.16.49-.2.83.24.2.36.35.36.45q0,.07-.17.26c-.1.13-.21.31-.36.66-.02.14-.02.18-.03.33.58-.32.72-.39,1.03-.54.71-.35,1.4-.52,2.04-.52,1.31,0,2.27.88,2.27,2.08,0,.99-.57,1.83-1.65,2.43-.57.31-1.09.48-1.85.61l-.05-.15Zm-2.88-2.37q-.49.82-.58.98c.45.33.46.34,1.2.8,0-.64.04-2.13.07-2.97-.59,1.02-.6,1.04-.69,1.19Z"/><path class="e" d="m76.72,29.77c-.7.24-1.04.37-1.3.52-.15.09-.21.11-.29.11-.11,0-.31-.13-.44-.3-.18-.23-.33-.58-.33-.76,0-.05.02-.12.06-.22.21.42.39.55.76.55.22,0,.91-.14,1.7-.35.23-.58.41-1.29.41-1.64,0-.31-.19-.48-.77-.67.12-.08.18-.1.3-.1.15,0,.4.05.67.13.45.13.7.31.7.52,0,.08-.02.12-.14.29-.14.21-.35.66-.64,1.36.44-.1.63-.12.87-.12.86,0,1.27.51,1.27,1.56,0,1.28-.51,2.94-1.09,3.59-.25.27-.64.45-.96.45-.17,0-.25-.07-.27-.23-.03-.28-.05-.3-1.11-1.17l.09-.13c.77.44,1.34.69,1.55.69.23,0,.39-.21.65-.84.35-.82.59-1.93.59-2.69,0-.67-.18-.91-.71-.91-.3,0-.48.04-1.05.21q-.14.34-.58,1.36c-.04.1-.24.57-.59,1.4-.4.94-.73,1.66-.89,1.94-.07.13-.15.19-.24.19-.18,0-.29-.26-.29-.69,0-.26.03-.33.23-.56.2-.22.45-.64.74-1.18q.38-.74.8-1.66l.3-.65Zm3.9-.64c.78.23,1.39.63,1.83,1.2.38.49.57.97.57,1.42,0,.34-.15.54-.4.54-.08,0-.13,0-.23-.07-.16-.09-.22-.1-.41-.1-.35,0-.4,0-1.25.09l-.04-.14c1.01-.31,1.22-.38,1.53-.51-.04-.34-.13-.62-.31-.96-.32-.61-.71-.99-1.37-1.33l.08-.14Z"/><path class="e" d="m86.23,35.32c.71-.44,1.15-.83,1.59-1.4.7-.93,1.05-2.06,1.05-3.37,0-.87-.15-1.69-.37-2.06-.18-.29-.42-.44-.71-.44-.5,0-.96.43-1.32,1.25-.29.65-.47,1.47-.47,2.15,0,.17.01.28.04.62.01.06.01.14.01.21,0,.19-.09.3-.26.3-.38,0-.63-.81-.63-2.05,0-.83.06-1.35.32-2.68.08-.4.11-.59.11-.73,0-.32-.14-.51-.54-.71.08-.03.14-.05.18-.05.21,0,.53.13.8.33.28.2.39.36.39.56,0,.13-.02.19-.14.38-.38.63-.72,2.05-.72,2.98,0,.09,0,.19,0,.37h.02c.3-1.28.67-2.11,1.16-2.62.37-.4.77-.59,1.22-.59.96,0,1.64,1.18,1.64,2.85,0,1.3-.36,2.38-1.09,3.27-.59.73-1.26,1.2-2.21,1.58l-.08-.15Z"/><path class="e" d="m96.07,26.62c1.04.5,1.45.91,1.45,1.45,0,.24-.11.38-.3.38-.06,0-.08,0-.31-.1-.27-.1-.65-.18-1.09-.23-.68-.08-1.32-.13-1.55-.13s-.38.11-.38.28c0,.14.21.64.66,1.56.55-.3,1.18-.59,1.75-.81.73-.28,1.31-.4,1.92-.4,1.21,0,2.07.65,2.07,1.58,0,.39-.2.84-.51,1.14-.36.35-.91.54-1.59.54-.81,0-1.65-.28-2.27-.75l.07-.15c.52.26,1.17.42,1.75.42.67,0,1.2-.19,1.5-.54.21-.24.32-.54.32-.86,0-.69-.52-1.08-1.44-1.08-.54,0-1.03.14-1.89.55-.47.23-.93.48-1.48.81.48.97.78,1.64,1.12,2.49.39.99.49,1.31.49,1.64,0,.43-.19.75-.46.75-.05,0-.11-.04-.16-.1-.06-.07-.09-.17-.13-.44-.19-1.25-.6-2.61-1.24-4.12-.57.38-.91.62-1.03.7-.15.11-.19.14-.27.2-.13.11-.22.15-.35.15-.44,0-1.06-.64-1.06-1.09,0-.04,0-.09.04-.17.23.34.47.52.7.52.28,0,.88-.27,1.75-.77-.25-.56-.49-.98-.69-1.23-.18-.24-.21-.3-.21-.43,0-.33.39-.68.75-.68.12,0,.13,0,.31.05.06.02.12.02.26.03.04,0,.35,0,.8,0,.25.01.45.01.75.01.58,0,.66-.02.66-.13,0-.2-.35-.59-.81-.92l.1-.13Z"/><path class="e" d="m103.83,35.11c1.16-.79,1.65-1.43,1.9-2.5-.23.14-.41.2-.64.2-.7,0-1.23-.62-1.23-1.44,0-.88.55-1.53,1.29-1.53.19,0,.3.03.56.17,0-.17.01-.72.01-1.04,0-.02,0-.11-.01-.2-.78.07-1.71.26-2.52.5-.25.08-.42.15-.65.27-.06.02-.17.05-.23.05-.18,0-.41-.14-.64-.38-.22-.24-.4-.57-.4-.73,0-.02.02-.07.05-.12.26.34.57.51.97.51.2,0,.42-.02.86-.09,1.18-.19,1.54-.24,2.56-.35,0-.6-.03-.89-.11-1.11-.11-.28-.35-.42-.86-.49.12-.15.19-.18.46-.18.34,0,.68.05.97.14.24.08.38.21.38.35,0,.08-.01.1-.1.27-.11.21-.18.49-.22.97q.26-.03.65-.06c.96-.07,1.07-.09,1.33-.18.25-.1.29-.11.37-.11.2,0,.6.17.85.37.12.09.16.16.16.27s-.07.17-.22.17c-.07,0-.09,0-.54-.06-.52-.07-.95-.1-1.54-.1-.37,0-.66.01-1.07.04-.04.38-.07.99-.07,1.36,0,.07,0,.19,0,.34.25.51.32.82.32,1.33,0,.98-.39,1.89-1.08,2.54-.38.36-.87.68-1.49.95l-.08-.13Zm1.27-5.03c-.45,0-.8.47-.8,1.08s.34,1.09.81,1.09c.43,0,.64-.32.64-.94,0-.83-.21-1.23-.65-1.23Z"/><path class="e" d="m113.63,26.58c.28,0,.83.26,1.11.53.16.16.22.26.22.4,0,.13-.05.19-.58.62-.54.45-1.52,1.37-1.84,1.73-.35.39-.48.62-.48.81,0,.14.1.32.3.52q.14.15.7.66c1.09,1.01,1.6,1.57,1.84,2.04.11.21.15.39.15.66,0,.38-.13.6-.34.6-.13,0-.17-.05-.34-.41-.18-.39-.49-.92-.84-1.41-.37-.53-.42-.59-1.46-1.81-.27-.33-.38-.57-.38-.84,0-.32.16-.59.77-1.34,1.21-1.47,1.51-1.89,1.51-2.13,0-.17-.13-.32-.55-.59.07-.03.12-.04.21-.04Z"/><path class="e" d="m120.81,28.76c.12-.16.15-.21.29-.36.24.15.31.2.53.36.11.07.16.13.16.17,0,.07-.1.15-.35.28v4.57c0,.12,0,.33,0,.58,0,.37-.04.48-.18.61-.14.13-.32.2-.89.34-.02-.29-.06-.39-.19-.47-.16-.1-.39-.16-1-.26l.02-.14c.62.03.67.04,1.43.07.18,0,.23-.03.23-.14v-2.04h-2.18c-.04.5-.09.76-.22,1.15-.24.72-.48,1.14-1.04,1.75l-.1-.1c.4-.66.57-1.13.7-1.93.09-.53.15-1.8.15-3.25q0-.37-.02-1.05c-.19.22-.32.34-.69.65l-.1-.11c.53-.61.82-1.08,1.26-2.06.25-.56.34-.81.45-1.2.66.17,1.03.3,1.03.38,0,.09-.19.15-.5.18-.14.27-.16.31-.32.58h.97c.14-.21.18-.27.33-.45.25.2.33.26.56.45.13.12.17.17.17.22,0,.06-.07.09-.29.13-.02,0-.03,0-.16.03-.26.29-.32.35-.47.53-.24.27-.26.29-.49.53h.9Zm-1.11,0q.22-.4.56-1.21h-1.11c-.25.4-.43.66-.71,1.03.08.06.13.09.27.18h.99Zm-.17,3.34v-1.52h-.76c-.02.74-.04,1.08-.07,1.52h.83Zm-.75-3.11v.34c0,.24-.01.67-.01,1.02h.76v-1.36h-.75Zm1.27,1.36h.82v-1.36h-.82v1.36Zm0,.23v1.52h.82v-1.52h-.82Zm4.07-3.43c-.21.86-.35,1.18-.72,1.68-.44.59-.89.95-1.71,1.35l-.08-.11c.62-.44,1.02-.88,1.34-1.46.24-.44.34-.75.47-1.46h-.17c-.58,0-.79.01-1.34.06l-.07-.4c.48.07.97.11,1.41.11h2.11c.12-.18.16-.23.3-.41.27.17.35.23.59.41.03.04.06.07.08.09.05.04.08.09.08.13,0,.07-.1.14-.37.25-.16,2.07-.21,2.17-1.29,2.39-.09-.38-.23-.46-1.17-.65v-.14q.3.02,1.02.06c.08.01.15.01.23.01.27,0,.34-.03.39-.2.08-.26.12-.61.19-1.71h-1.29Zm-.29,4.15q0-.97-.04-1.37c.44.04.86.09.94.12.04,0,.08.05.08.09,0,.03-.03.07-.07.09s-.08.04-.14.07c-.04,0-.1.03-.18.06v.94h.8c.21-.28.27-.37.49-.63.31.31.4.42.7.72.02.03.03.06.03.08,0,.04-.05.06-.14.06h-1.88c0,.32,0,.76.01,1.33h1.05c.22-.31.3-.4.53-.69.32.33.43.44.75.77,0,.04.03.07.03.09,0,.04-.04.06-.16.06h-2.2q0,1.56.02,2.11c0,.08-.01.11-.05.13-.04.03-.3.07-.46.07-.12,0-.16-.04-.16-.15v-.03q.02-.51.04-2.13h-1.07c-.38,0-.58.01-1.04.06l-.07-.39c.42.06.84.1,1.11.1h1.08v-.32c0-.05,0-.1,0-.13v-.08c0-.06,0-.16,0-.34v-.46h-1.28c-.32.47-.44.62-.77.96l-.11-.08c.56-.94.79-1.49.98-2.39.6.14.87.25.87.33,0,.07-.12.13-.39.19-.15.31-.22.43-.43.76h1.13Z"/><path class="e" d="m127.41,28.36c.31.06.55.09.79.09h1.92c.22-.26.3-.34.54-.6.36.29.47.38.82.7.03.03.04.05.04.07,0,.04-.04.06-.11.06h-3.21c-.28,0-.42,0-.72.05l-.07-.37Zm.44,1.23c.3.06.47.08.67.08h1.34c.2-.23.27-.3.49-.52.33.25.42.34.73.61.04.03.05.06.05.07,0,.03-.04.07-.08.07h-2.57c-.17,0-.3,0-.56.05l-.07-.36Zm0,1.35c.27.05.49.07.68.07h1.27c.23-.26.3-.34.54-.58.35.27.45.36.76.66.02.03.04.07.04.08,0,.04-.04.07-.09.07h-2.52c-.22,0-.35,0-.61.05l-.07-.35Zm.07-3.91c.36.07.44.08.69.08h1.22c.22-.24.29-.32.51-.55.32.27.42.35.72.65.02.03.03.06.03.08,0,.03-.03.05-.08.05h-2.4c-.22,0-.35,0-.62.05l-.07-.36Zm.74,8.19c0,.15-.08.18-.43.18-.19,0-.22-.02-.23-.13.02-1.39.02-1.42.02-1.98,0-.71-.01-.94-.03-1.4.34.21.43.28.73.51h1.36c.16-.18.21-.23.38-.4.26.19.33.25.55.44.07.06.1.11.1.15,0,.08-.06.13-.35.28q0,1.44.01,1.98c-.02.13-.1.16-.44.16-.18,0-.21-.02-.21-.12v-.12h-1.46v.45Zm0-.68h1.46v-1.91h-1.46v1.91Zm4.7-3.37c-.04,1.04-.25,1.87-.62,2.47-.33.52-.81.98-1.41,1.35-.28.17-.47.27-.92.45l-.06-.13c1.01-.62,1.62-1.29,1.99-2.16.22-.52.36-1.25.36-1.85v-.13h-.41v.34c-.01.12-.09.16-.37.16s-.31-.02-.31-.13c.02-.53.04-1.6.04-2.5,0-.25-.01-.44-.03-1.1.35.2.45.27.78.51h1.61c.43-.82.71-1.55.8-2.11.8.22,1.12.36,1.12.45,0,.1-.14.14-.48.17-.4.59-.64.89-1.2,1.49h.87c.16-.2.21-.26.37-.44.27.18.35.24.58.42.09.06.12.1.12.14q0,.06-.34.31v.94c0,.75,0,1.19.02,1.66,0,.15-.09.18-.47.18-.17,0-.2-.02-.2-.13v-.36h-.55v3.22c0,.12.06.14.53.14.44,0,.53-.02.61-.14.09-.12.27-.78.54-1.94h.14s-.09,1.72-.09,1.72v.05c0,.11.04.17.15.22.19.09.25.16.25.29,0,.3-.33.39-1.45.39-.91,0-1-.01-1.14-.1-.15-.1-.2-.23-.2-.49,0-.58,0-.62,0-.86v-2.5h-.64Zm-1.34-4.79c.33.24.63.48.87.7.26.23.34.36.34.54,0,.26-.24.63-.4.63-.08,0-.09-.02-.19-.33-.21-.63-.36-.93-.73-1.43l.11-.11Zm.27,4.56h2.91v-2.26h-2.91v2.26Z"/></g></svg>