<?xml version="1.0" encoding="UTF-8"?><svg id="b" xmlns="http://www.w3.org/2000/svg" viewBox="0 0 2001 2001"><defs><style>.d{fill:#38479d;stroke:#231f20;stroke-miterlimit:10;}.e{fill:#fff;stroke-width:0px;}</style></defs><g id="c"><rect class="d" x=".5" y=".5" width="2000" height="2000"/><path class="e" d="m696.11,482.9v39.69c-39.17,3.72-66.02,9.28-80.57,16.69-14.56,7.42-21.83,24.38-21.83,50.87,0,6.9.79,14.97,2.38,24.25,1.59,9.28,3.97,18.94,7.14,29.01l199.27,569.15h3.34l185.76-476.26c1.05-2.65-6.52-26.88-22.72-72.65-16.21-45.76-27.5-73.98-33.87-84.62-12.18-19.08-25.54-32.59-40.08-40.54-14.56-7.95-40.88-13.25-78.98-15.9v-39.69h508.03v39.69c-46.57,3.72-77.66,8.76-93.27,15.11-15.61,6.36-23.42,20.67-23.42,42.93,0,5.31,1.71,15.5,5.16,30.61,3.43,15.11,9.39,35.91,17.86,62.4l186.6,523.85h-6.8l177.33-534.98c3.17-9.54,5.82-19.73,7.94-30.6,2.11-10.86,3.17-22.92,3.17-36.18,0-30.2-11.38-50.34-34.13-60.41-13.77-6.35-39.96-10.59-78.58-12.71v-39.69h297.67v39.69c-24.88,3.72-44.19,10.07-57.94,19.07-23.81,16.43-42.34,44.78-55.56,85.06l-325.44,981.71h-42.86l-273.05-763.11h-11.11l-297.65,763.11h-45.24l-343.69-981.71c-14.82-42.27-29.64-69.16-44.45-80.64-14.82-11.48-37.84-19.31-69.06-23.49v-39.69h478.64Z"/></g></svg>